<svg fill="#0cb01d" height="800px" width="800px" version="1.1" id="Layer_1"
    xmlns="http://www.w3.org/2000/svg" xmlns:xlink="http://www.w3.org/1999/xlink"
    viewBox="0 0 499.312 499.312" xml:space="preserve" stroke="#000000" stroke-width="5.492432">

<g id="SVGRepo_bgCarrier" stroke-width="0"/>

<g id="SVGRepo_tracerCarrier" stroke-linecap="round" stroke-linejoin="round"/>

<g id="SVGRepo_iconCarrier"> <g> <g> <g> <path d="M251.312,33.656c-70.576,0-128,57.424-128,128s57.424,128,128,128s128-57.424,128-128S321.888,33.656,251.312,33.656z M251.312,273.656c-61.76,0-112-50.24-112-112s50.24-112,112-112s112,50.24,112,112S313.072,273.656,251.312,273.656z"/> <path d="M368,1.656l32,32l-25.752,25.752C344.872,24.152,300.68,1.656,251.312,1.656c-88.224,0-160,71.776-160,160 c0,49.368,22.496,93.56,57.752,122.936l-9.752,9.752l-24-24L0,385.656l67.312,67.312l56-56l32,32l48-48v68.688 c0,26.472,21.528,48,48,48s48-21.528,48-48v-96h16v-16h-16V314.28c61.192-19.288,106.48-74.456,111.4-140.704l60.6-60.6l28,28 V1.656H368z M203.312,337.656h-16v16h16v4.688l-48,48l-32-32l-56,56l-44.688-44.688l92.688-92.688l24,24l22.648-22.648 c12.624,8.528,26.528,15.288,41.352,19.96V337.656z M283.312,449.656c0,17.648-14.352,32-32,32s-32-14.352-32-32v-96h64V449.656z M283.312,337.656h-64v-19.224c10.344,2.104,21.04,3.224,32,3.224c10.96,0,21.656-1.12,32-3.224V337.656z M251.312,305.656 c-79.4,0-144-64.6-144-144s64.6-144,144-144s144,64.6,144,144S330.712,305.656,251.312,305.656z M483.312,102.344l-12-12 l-60.544,60.544c-1.944-28.952-11.432-55.856-26.792-78.584l38.648-38.648l-16-16h76.688V102.344z"/> <path d="M251.312,110.424c-18.648-16.952-47.632-16.44-65.656,1.576c-18.56,18.552-18.56,48.76,0,67.312l65.656,65.656 l65.656-65.656c18.56-18.552,18.56-48.76,0-67.312C298.944,93.976,269.968,93.464,251.312,110.424z M305.656,168l-54.344,54.344 L196.968,168c-12.32-12.32-12.32-32.368,0-44.688c6.168-6.16,14.248-9.24,22.344-9.24s16.176,3.088,22.344,9.24l9.656,9.656 l9.656-9.656c12.328-12.312,32.36-12.312,44.688,0C317.976,135.632,317.976,155.68,305.656,168z"/> <path d="M419.312,281.656c-44.112,0-80,35.888-80,80s35.888,80,80,80s80-35.888,80-80S463.424,281.656,419.312,281.656z M419.312,425.656c-35.288,0-64-28.712-64-64c0-35.288,28.712-64,64-64c35.288,0,64,28.712,64,64 C483.312,396.944,454.6,425.656,419.312,425.656z"/> <path d="M411.312,337.656h16c4.416,0,8,3.584,8,8h16c0-13.232-10.768-24-24-24v-16h-16v16c-13.232,0-24,10.768-24,24 s10.768,24,24,24h16c4.416,0,8,3.584,8,8c0,4.416-3.584,8-8,8h-16c-4.416,0-8-3.584-8-8h-16c0,13.232,10.768,24,24,24v16h16v-16 c13.232,0,24-10.768,24-24s-10.768-24-24-24h-16c-4.416,0-8-3.584-8-8C403.312,341.24,406.896,337.656,411.312,337.656z"/> </g> </g> </g> </g>

</svg>