<?xml version="1.0" encoding="iso-8859-1"?>
<!-- Uploaded to: SVG Repo, www.svgrepo.com, Generator: SVG Repo Mixer Tools -->
<svg height="800px" width="800px" version="1.1" id="Layer_1" xmlns="http://www.w3.org/2000/svg" xmlns:xlink="http://www.w3.org/1999/xlink" 
	 viewBox="0 0 500.974 500.974" xml:space="preserve">
<g>
	<path style="fill:#50DD8E;" d="M306.4,438.637c1.2,0,2.2-0.6,3.4-1.4l0.1-0.1c2.6-1.6,5.1-3.7,7.5-6.2c0.3-0.3,0.6-0.7,1-1
		c1.1-1.1,2.2-2.2,3.2-3.5c2.8-3.6,4.9-7.6,6.5-12.1c1.8-5.2,2.7-10.9,2.7-17.1c0-27.4-16.9-39.1-23.4-41.2l-1.2-0.4l-1.1,0.6
		c-8.6,4.3-23,15.3-23,41.1c0,18.2,7.5,31.9,22.4,40.7l0.4,0.2l0.8,0.4H306.4z"/>
	<path style="fill:#50DD8E;" d="M353.3,442.137c-7.5-4.4-15.5-6.9-23-7.2c-0.5,0-1,0-1.5,0c-7.5,0-14.7,2.4-22.2,7.4l-1.3,0.9v1.6
		c0,16.4,8.2,30,23.6,39.3h0.1c8.3,4.6,16.6,7,24.8,7c11.5,0,19.2-4.6,21.7-6.1l1.2-0.7l0.2-1.4
		C377.3,480.237,380.1,458.037,353.3,442.137z"/>
	<path style="fill:#50DD8E;" d="M385.4,286.837c10.3,8.7,19.8,10.5,26.1,10.5l0,0c6.2,0,11.3-1.8,14.1-3.4l1.1-0.6l0.3-1.2
		c0.5-1.8,0.9-3.8,0.9-5.9v-0.8c0-12.7-5.1-22.9-15.7-31.4c-8.5-6.5-17.4-9.8-26.4-9.8c-6.8,0-11.6,1.9-13.2,2.6l-1.6,0.6l-0.3,1.7
		C369.9,254.537,367.1,271.237,385.4,286.837z"/>
	<path style="fill:#50DD8E;" d="M496.6,267.837c-3.3-2.6-12.3-8.7-25.6-8.7c-5.5,0-11,1.1-16.6,3.1c-15.1,5.7-21.3,15.2-24.7,22
		c-2.2,4.4-2.2,7.4-2,10.1l0.1,1.3l1,0.8c3,2.4,10.9,8.7,23.5,8.7l0,0c5.1,0,10.6-1.1,16.1-3.1c15.1-5.7,24.9-16.1,29.1-31l0.5-1.9
		L496.6,267.837z"/>
	<path style="fill:#50DD8E;" d="M149.1,62.937l1.1,0.8l1.3-0.3c4.1-0.8,7.6-2.3,11.2-7.1c3.6-4.8,5.8-10.7,6.6-17.7v-0.2
		c0.6-11.5-3.5-20.7-12.3-27.3l-1.5-1.1l-1.7,0.8c-3.8,1.9-15.2,7.6-16.2,24.6C136.4,47.137,140.2,56.337,149.1,62.937z"/>
	<path style="fill:#50DD8E;" d="M164.9,66.337c-2,0-4,0.3-5.9,0.7c-1.1,0.3-2.2,0.6-3.3,1.1c-0.9,0.4-2.9,1.2-3.4,3.3
		c-1,5.1-0.1,10.8,2.7,15.8c2.7,5,6.8,8.4,10.4,11.1c5.6,4.1,12.1,6.3,18.3,6.3l0,0c4,0,7.8-0.9,11.3-2.7l1.3-0.7l0.3-1.4
		c0.5-2.7,2.4-16.6-13.2-27c-4.5-3-10.6-6.5-18-6.7C165.2,66.337,165.1,66.337,164.9,66.337z"/>
	<path style="fill:#50DD8E;" d="M99.8,125.437h1.4l0.9-1c2.8-3.3,5.3-7.1,6.5-10.3v-0.1c2.4-7.3,2.2-15-0.9-23.4
		c-7.4-18.6-21.5-21.4-26.1-22.3l-1.6-0.3l-1.1,1.1c-3.1,3.1-12.6,14.7-5,33.9C80.2,120.737,93.6,125.437,99.8,125.437z"/>
	<path style="fill:#50DD8E;" d="M102.9,125.837c-0.8,1.6-0.2,3.2,0.1,3.8c0.1,0.2,0.2,0.4,0.2,0.5l0.1,0.2c0.4,1,0.8,2,1.3,2.9
		c3.5,7,10.1,12.4,18.5,15.3c1.9,0.6,3.9,1.2,6.1,1.6c2.6,0.5,5.1,0.7,7.6,0.7l0,0c15,0,23.1-9.3,25.3-12.1l0.8-1.1l-0.3-1.3
		c-0.4-1.8-4.2-17.8-27.1-22c-2.4-0.4-4.8-0.7-7.2-0.7c-7.8,0-15,2.3-20.8,6.8C105.6,121.837,103.9,123.737,102.9,125.837z"/>
	<path style="fill:#50DD8E;" d="M390,219.337c4.1,1.1,8,1.6,11.7,1.6l0,0c9.5,0,17.7-3.4,24.4-10.1l0.9-0.9v-1.2
		c0-7.2-6.1-14.4-8-16.4c-4.7-5.1-11.1-8.9-18.9-11.2H400h-0.1c-3.5-0.8-7-1.2-10.3-1.2c-10.1,0-18.8,3.5-25.7,10.5l-1.1,1.1
		l0.3,1.6C364.1,197.937,368.8,213.837,390,219.337z"/>
	<path style="fill:#50DD8E;" d="M430.2,207.837l0.6,0.7l0.9,0.3c2.1,0.7,5.5,1.5,9.7,1.5l0,0c6.5,0,16.2-2,25.8-11.6
		c16.8-16.8,11.3-33.4,10.1-36.5l-0.5-1.2l-1.2-0.5c-1.4-0.5-5.1-1.8-10.3-1.8c-6.5,0-16.4,2.1-26.2,11.9c-6.5,6.5-10.6,14.8-12,24
		C426.4,199.937,427.5,204.237,430.2,207.837z"/>
	<path style="fill:#50DD8E;" d="M194.3,438.737l-0.7-0.6c-2.6-2.3-6.2-4-11.9-5.6h-0.1c-2.3-0.5-4.8-0.8-7.4-0.8
		c-6.3,0-16.4,1.7-28.4,9.6l-0.2,0.1c-23.5,17.8-19.7,39.2-18.7,43.4l0.3,1.2l1,0.7c1.8,1.2,8.5,5.1,18.5,5.1l0,0
		c9.5,0,18.9-3.4,28.2-10.2c23.7-17.5,20.6-37.8,19.7-41.7L194.3,438.737z"/>
	<path style="fill:#50DD8E;" d="M196.6,351.837l-1.3-0.7l-1.3,0.7c-8.6,4.3-23,15.3-23,41.1c0,9.4,2,17.7,6,24.6
		c1.6,2.8,3.6,5.4,5.8,7.7c0.7,0.8,1.5,1.5,2.2,2.1l0.6,0.6c1.1,1,2.1,1.9,3,2.6c1.7,1.4,3.3,2.4,5.3,3.4l1.2,0.6l1.3-0.5
		c2.4-1,23.2-10.2,23.2-41.2C219.6,367.237,205.2,356.137,196.6,351.837z"/>
	<path style="fill:#50DD8E;" d="M310.6,101.837c3.7,1.8,7.6,2.8,11.6,2.8l0,0c6.1,0,12.2-2.2,18-6.5c4.7-3.5,11.2-9.1,13-18.2
		c0.5-2.5,0.6-4.9,0.3-7.3c-0.3-2.5-1.6-4.1-4.1-5.1c-2.7-1-5.6-1.5-8.7-1.5c-6.6,0-13.6,2.3-19.1,6.4c-6.6,4.9-11.5,12.6-12.7,20.2
		c-0.2,1.4-0.3,2.9-0.3,4.2v0.1C308.6,98.737,308.6,100.937,310.6,101.837z"/>
	<path style="fill:#50DD8E;" d="M343.5,61.137c2.5,2.3,6.5,5.3,11,6.3l1.4,0.3l1.1-0.9c8.6-7,12-16.4,10.2-27.9
		c-2.7-17.3-13.8-23.2-17.8-24l-1.1-0.2l-1,0.5c-4.8,2.6-13.1,11.9-10.7,28.1C337.1,51.637,339.3,57.237,343.5,61.137z"/>
	<path style="fill:#50DD8E;" d="M422.2,366.437c-2.9-0.5-5.9-0.8-8.8-0.8c-5,0-9.7,0.8-14.1,2.4c-5.9,2.1-10.1,6-14.1,9.7
		c-1.1,1-2.2,2-3.3,3l-1.4,1.2l0.5,1.8c1,3.8,7.2,22.7,34,27.5h0.1c2.7,0.4,5.4,0.6,8,0.6l0,0c20.2,0,30.1-11.8,32.6-15.5l0.8-1.1
		l-0.3-1.3C455.2,390.137,449.1,371.137,422.2,366.437z"/>
	<path style="fill:#50DD8E;" d="M384.7,376.337c0.1-0.2,0.2-0.3,0.3-0.4c6-7.3,7.3-18,6.5-25.6c-0.5-5.1-2-10.3-4.3-15.6v-0.1
		c-11.4-23.1-30-25.2-35.5-25.4h-1.4l-0.9,1.1c-5.6,6.7-13.4,21.1-3.8,43.2c10.9,24,29.3,26.2,34.6,26.3h0.1
		C382.3,379.837,383.5,378.137,384.7,376.337z"/>
	<path style="fill:#50DD8E;" d="M59.2,209.637c1.2,0.1,2.3,0.2,3.5,0.2c1.3,0,2.5-0.1,3.7-0.2c1-0.1,1.9-0.3,2.8-0.5l0.6-0.1
		c0.1,0,0.2,0,0.3-0.1c0.9-0.1,2.5-0.4,3.7-1.9c1-1.3,1.4-3.3,1.5-3.9c0.7-4,1.3-8.3,0.6-12.5c-0.6-3.6-2-7.3-4.1-11
		c-2-3.5-4.5-6.7-7.5-9.7c-9.3-9.9-19-11.9-25.5-11.9c-5.1,0-8.9,1.3-10.3,1.8l-1.2,0.5l-0.5,1.2c-1.3,3.2-6.7,19.8,10.1,36.5
		C43.8,204.637,51.4,208.637,59.2,209.637z"/>
	<path style="fill:#50DD8E;" d="M396.1,114.337L396.1,114.337c1.9,4.4,4.2,7.7,7.1,10.4l1.1,1l1.5-0.3c4.6-0.9,18.7-3.7,25.3-22.4
		c6.5-18.6-1.9-29.8-4.7-33.5l-1.1-1.5l-1.9,0.4c-4.6,0.9-18.7,3.7-25.2,22.3C394,99.637,393.4,106.837,396.1,114.337L396.1,114.337
		z"/>
	<path style="fill:#50DD8E;" d="M342.6,137.237l-0.3,1.3l0.8,1.1c3.3,4.4,11.1,11.9,26.1,11.9l0,0c2.1,0,4.3-0.2,6.6-0.5
		c7.2-1,14.7-4.8,20-10.1c1.9-1.9,3.5-4,4.6-6.2c0.1-0.2,0.2-0.3,0.3-0.5c0.8-1.4,2.1-3.8,1.2-6.4c-1.7-4.8-6.6-8-10.3-9.8
		c-4.2-2-8.8-3-14.1-3c-2.4,0-4.9,0.2-7.6,0.6C351.2,118.237,344,130.437,342.6,137.237z"/>
	<path style="fill:#50DD8E;" d="M51.7,305.037c12.6,0,20.5-6.3,23.5-8.7l1.3-1l-0.1-1.4l0.5,0.2c4.4,1.8,9.4,2.7,14.3,2.7l0,0
		c9.7,0,18.9-3.5,27.6-10.4c19.4-16.5,16.4-34,15.5-39.8l-0.3-1.7l-1.6-0.6c-2.1-0.8-7.6-3-14.9-3c-9.5,0-18.6,3.6-27,10.8
		c-12.8,11-16,22.9-16.4,31.5c-4-9.7-12.4-17-24.4-21.3c-5.5-2.1-11.1-3.1-16.4-3.1c-12.7,0-21.5,5.9-25.3,8.4l-1.8,1.2l0.3,1.9
		c0.5,3.7,4.4,22.5,29.2,31.4C41.2,303.937,46.6,305.037,51.7,305.037L51.7,305.037z"/>
	<path style="fill:#50DD8E;" d="M156.9,351.237c10.1-22,1.4-37.5-2.9-43.2l-0.9-1.2h-1.5c-5.5,0-24.1,1.8-35.1,25.5
		c-5.7,10.3-7.1,21.6-3.9,31.8c0.6,2,1.4,3.8,2.1,5.7h0.1c0.5,1.2,1.2,2.3,1.9,3.3c1.6,2.2,3.1,3.6,5,3.6
		C127.1,376.837,145.4,375.037,156.9,351.237z"/>
	<path style="fill:#50DD8E;" d="M112.8,371.737l-0.2-0.2l-0.1-0.1c-8-6.9-17.6-10.2-29.4-10.2c-1.1,0-2.3,0-3.5,0.1h-0.1h-0.1
		c-24.9,3.6-33.6,20.6-35.6,25.7l-0.6,1.4l0.8,1.3c3.2,5.4,13,18,33.8,18l0,0c1.9,0,3.8-0.1,5.7-0.3c26.8-1.9,34.6-21.2,35.9-25.1
		l0.3-0.8l-0.2-0.9C118.5,377.137,115.6,374.437,112.8,371.737z"/>
	<path style="fill:#50DD8E;" d="M104.1,180.137c-8.8,2.6-15.5,6.6-20.1,12.1c-3.4,4.1-5,8.8-6.5,13.4c-0.1,0.4-0.4,1.1-0.3,1.9
		c0,0.5,0.1,0.9,0.3,1.3c0.5,1.2,1.5,2,2.2,2.6c0.1,0.1,0.2,0.2,0.3,0.2c0.8,0.7,1.6,1.4,2.4,2c2.2,1.7,4.6,3.1,7.1,4.1
		c3.8,1.6,8,2.4,12.4,2.4l0,0c3.5,0,7.2-0.5,10.9-1.5c0.5-0.1,0.9-0.3,1.4-0.4c21.2-5.6,25.9-21.4,26.9-26.2l0.3-1.6l-1.1-1.1
		c-3-3-10.8-10.8-25-10.8C111.7,178.637,108,179.137,104.1,180.137z"/>
</g>
<g>
	<path style="fill:#51565F;" d="M500,269.237c-0.9-0.9-20.5-19.6-50.3-8.5c-7.7,2.6-13.7,6-17.9,10.2c0.9-5.1,0.9-11.1,0.9-16.2
		c0-12.8-0.9-25.6-1.7-36.7c8.5,1.7,23,1.7,37.5-12.8c22.2-21.3,11.9-42.8,11.1-44.4c-0.4-1-0.8-1.4-1.7-1.7
		c-0.8-0.3-23-10.2-44.4,11.1c-3.4,3.4-6.8,7.7-8.5,11.1c-5.1-17.9-11.1-33.3-17.9-46.9c7.7-1.7,20.5-6.8,27.3-25.6
		c9.4-27.3-7.7-41-8.5-41.8c-0.9-0.9-1.7-0.9-2.6-0.9s-23.9,0-33.3,26.5c-1.7,3.4-2.6,6.8-2.6,10.2c-9.4-11.9-19.6-22.2-29-29.9
		c6-4.3,13.7-13.7,11.9-30.7c-2.6-25.6-22.2-30.7-23-30.7c-0.9-0.9-1.7,0-2.6,0s-19.6,8.5-17.1,34.1c0.9,2.6,0.9,5.1,1.7,7.7
		c-10.2-5.1-17.9-7.7-17.9-7.7c-2.6-0.9-4.3,0-5.1,2.6c-0.9,1.7,0,4.3,2.6,5.1c0.9,0,10.2,2.6,23,10.2c-4.3,0.9-10.2,2.6-15.4,6.8
		c-21.3,14.5-15.4,34.1-15.4,35s0.9,1.7,1.7,2.6c0.9,0,17.9,11.9,38.4-2.6c11.1-7.7,14.5-17.1,15.4-23.9c9.4,8.5,19.6,18.8,29,31.6
		c-6-1.7-11.9-2.6-19.6-0.9c-28.2,5.1-31.6,27.3-31.6,28.2c0,0.9,0,1.7,0.9,2.6c0,0.9,11.1,20.5,39.3,15.4
		c15.4-2.6,23-11.1,27.3-17.9c6.8,12.8,11.9,28.2,16.2,46.1c-4.3-4.3-10.2-7.7-17.9-9.4c-29-7.7-42.7,11.9-43.5,12.8
		c-0.9,0.9-0.9,1.7-0.9,2.6s1.7,25.6,31.6,33.3c17.9,5.1,29.9-0.9,36.7-6c0.9,10.2,1.7,21.3,1.7,33.3c0,3.4,0,7.7,0,11.9
		c-3.4-5.1-6.8-9.4-11.9-13.7c-24.7-20.5-46.9-7.7-47.8-6.8c-0.9,0-1.7,0.9-1.7,1.7c-0.9,0.9-9.4,24.7,15.4,46.1
		c16.2,12.8,31.6,12.8,40.1,10.2c-5.1,18.8-13.7,35.8-23,51.2c0-6-1.7-13.7-5.1-21.3c-14.5-30.7-41.8-28.2-42.7-28.2s-1.7,0-2.6,0.9
		s-20.5,19.6-6,51.2c9.4,19.6,23.9,26.5,33.3,28.2c-13.7,14.5-28.2,26.5-42.7,35.8c2.6-6,4.3-13.7,4.3-23
		c0-36.7-27.3-46.9-28.2-46.9s-1.7,0-2.6,0c-0.9,0.9-28.2,10.2-28.2,46.9c0,24.7,12.8,37.5,21.3,42.7c-17.1,8.5-29,12.8-29,12.8
		c-1.7,0.9-3.4,2.6-2.6,5.1c0.9,1.7,2.6,3.4,5.1,2.6c0,0,12.8-4.3,30.7-12.8c0,9.4,5.1,26.5,26.5,39.3c10.2,6,19.6,7.7,27.3,7.7
		c4.2,0,8.4-0.6,12.5-1.7c3.1-0.8,6.2-1.9,9.2-3c1.1-0.4,3.1-0.6,3.1-2.1c0-0.9,5.1-29-26.5-47.8c-7.7-5.1-15.4-6.8-22.2-7.7
		c15.4-11.1,32.4-23.9,46.9-40.1c4.3,8.5,15.4,22.2,39.3,23.9c34.1,3.4,45.2-22.2,46.1-23c0-0.9,0-1.7,0-2.6
		c-0.9-0.9-7.7-27.3-41.8-30.7c-7.7-0.9-14.5,0-20.5,1.7c10.2-16.2,18.8-34.1,23.9-54.6c7.7,5.1,21.3,11.9,41.8,4.3
		c30.7-11.1,33.1-37.2,33.3-38.4C501.2,270.537,500.9,270.037,500,269.237z M311.9,99.237c-0.3-0.2-0.3-2.1-0.3-2.4
		c0-1.2,0-2.4,0.2-3.6c1.1-7.1,5.7-14,11.5-18.2c6.8-5,16.9-7.5,25-4.5c1.4,0.5,2,1.2,2.2,2.6c0.3,2.1,0.1,4.3-0.3,6.3
		c-1.4,7.1-6.2,12.2-11.8,16.4C325.6,105.137,315.3,100.937,311.9,99.237z M364.3,39.337c2.4,15.3-5.9,22.5-9.2,25.2
		c-3.7-0.8-7.2-3.3-9.6-5.6c-3.6-3.3-5.5-8.3-5.8-16c-2.4-15.3,5.8-23.3,9.2-25.2C352.3,18.537,362,24.137,364.3,39.337z
		 M345.6,137.837c0.9-4.3,6.3-16.6,24.7-19.2c6.9-1.1,13.8-0.9,20,2.1c3.4,1.7,7.5,4.4,8.8,8.1c0.5,1.5-0.6,3.1-1.3,4.4
		c-1.1,2-2.5,3.9-4.1,5.5c-4.7,4.8-11.6,8.4-18.2,9.3C356.7,150.637,348.1,141.237,345.6,137.837z M400.9,91.737
		c6-17.1,18.8-19.6,23-20.5c2.6,3.4,10.2,13.7,4.3,30.7c-6,17.1-18.8,19.6-23,20.5c-2.9-2.7-4.9-5.9-6.3-9.3
		C396.8,107.437,396.6,101.137,400.9,91.737z M373.9,482.237c-4.3,2.6-20.5,11.9-43.5-0.9c-21.3-12.8-22.2-30.7-22.2-36.7
		c6.6-4.4,13.8-7.2,21.9-6.8c7.6,0.3,15.1,3,21.6,6.8C374.8,458.337,374.8,477.137,373.9,482.237z M327.6,397.237
		c0,5.5-0.7,11-2.5,16.2c-1.4,4-3.4,7.8-6,11.2c-1.2,1.6-2.6,2.9-3.9,4.3c-2.1,2.2-4.4,4.1-6.9,5.7c-0.3,0.2-1.7,1.2-2,1
		c-4.3-2.6-21.3-11.9-21.3-38.4s16.2-35.8,21.3-38.4C311.4,360.537,327.6,370.737,327.6,397.237z M415.6,408.237
		c-23.7-4.2-30.3-20.1-31.6-25.3c5.3-4.6,9.6-9.7,16.5-12.2c6.8-2.5,14.2-2.7,21.3-1.4c23.7,4.2,30.3,20.1,31.6,25.3
		C450.5,398.737,439.3,411.637,415.6,408.237z M380.3,376.837c-6-0.1-22.1-3-32-24.5c-9.8-22.4-0.1-35.8,3.3-40
		c5.1,0.1,22.1,2.1,32.8,23.7c2.1,4.6,3.6,9.6,4.1,14.6c0.8,7.8-0.9,17.3-5.9,23.4C382.3,374.537,380.9,376.937,380.3,376.837z
		 M424.9,286.237c0,1.7-0.5,3.6-0.9,5.1c-4.3,2.6-19.6,7.7-36.7-6.8s-14.5-29.9-13.7-35c4.3-1.7,18.8-6.8,36.7,6.8
		c12.8,10.2,14.5,21.3,14.5,29v0.9H424.9z M474.4,163.437c1.7,4.3,5.1,18.8-9.4,33.3c-13.7,13.7-27.3,11.1-32.4,9.4
		c-2.6-3.5-3-7.3-2.6-11.1c0.9-6,3.4-14.5,11.1-22.2C455.6,158.237,470.2,161.737,474.4,163.437z M430.8,294.137
		c-0.1-2.1-0.3-4.5,1.7-8.5c3.4-6.8,9.4-15.4,23-20.5c20.5-7.7,35,1.7,39.3,5.1c-1.7,6-6.8,21.3-27.3,29
		C447,306.937,435,297.537,430.8,294.137z M390.8,216.437c-19.6-5.1-23.9-19.6-24.7-23.9c3.4-3.4,13.7-12.8,33.3-8.5
		c6.6,1.9,12.9,5.2,17.6,10.3c3.3,3.6,7.2,9.4,7.2,14.4C420.7,212.137,410.4,221.537,390.8,216.437z"/>
	<path style="fill:#51565F;" d="M231.2,447.537c0-0.9-11.9-4.3-29-12.8c8.5-5.1,21.3-17.9,21.3-42.7c0-36.7-27.3-46.9-28.2-46.9
		s-1.7,0-2.6,0c-0.9,0.9-28.2,10.2-28.2,46.9c0,9.4,1.7,17.1,4.3,23c-14.5-9.4-29-21.3-42.7-35.8c10.2-2.6,23.9-8.5,33.3-28.2
		c14.5-31.6-5.1-50.3-6-51.2c-0.9,0-1.7-0.9-2.6-0.9c-0.9-0.9-28.2-3.4-42.7,28.2c-3.4,7.7-5.1,15.4-5.1,21.3
		c-10.2-14.5-17.9-31.6-23-51.2c9.4,2.6,23.9,3.4,40.1-10.2c24.7-21.3,15.4-45.2,15.4-46.1c0-0.9-0.9-0.9-1.7-1.7
		c-0.9-0.9-23-14.5-47.8,6.8c-6,4.3-9.4,9.4-11.9,13.7c0-3.4,0-7.7,0-11.9c0-11.9,0.9-23,1.7-33.3c6.8,5.1,18.8,11.1,36.7,6
		c29.9-7.7,31.6-32.4,31.6-33.3s0-1.7-0.9-2.6c0-0.9-13.7-20.5-43.5-12.8c-7.7,2.6-13.7,6-17.9,9.4c4.3-17.1,9.4-32.4,16.2-46.1
		c3.4,6.8,11.9,15.4,27.3,17.9c28.2,5.1,38.4-14.5,39.3-15.4s0.9-1.7,0.9-2.6c0-0.9-3.4-23-31.6-28.2c-6.8-0.9-13.7-0.9-18.8,0.9
		c9.4-12.8,19.6-23,29-31.6c0.9,6.8,4.3,16.2,15.4,23.9c21.3,14.5,37.5,3.4,38.4,2.6c0.9-0.9,1.7-1.7,1.7-2.6s5.1-20.5-15.4-35
		c-5.1-4.3-10.2-6-15.4-6.8c13.7-7.7,23-10.2,23-10.2c1.7-0.9,3.4-2.6,2.6-5.1c-0.9-1.7-2.6-3.4-5.1-2.6c0,0-7.7,2.6-17.9,7.7
		c0.9-2.6,1.7-5.1,1.7-7.7c2.6-25.6-16.2-34.1-17.1-34.1c-0.9,0-1.7,0-2.6,0s-20.5,5.1-23,30.7c-0.9,17.1,6.8,26.5,11.9,30.7
		c-9.4,7.7-19.6,17.9-29,29.9c0-2.6-0.9-6.8-2.6-10.2c-10-26.3-32.2-26.3-33.1-26.3s-1.7,0-2.6,0.9s-17.9,15.4-8.5,41.8
		c6.8,17.9,19.6,23.9,27.3,25.6c-7.7,13.7-13.7,29-17.9,46.9c-1.7-3.4-5.1-7.7-8.5-11.1c-21.3-22.2-43.5-11.9-44.4-11.1
		c-0.9,0-1.7,0.9-1.7,1.7s-10.2,23,11.1,44.4c14.5,14.5,29,14.5,37.5,12.8c-0.9,11.9-1.7,23.9-1.7,36.7c0,6,0.9,11.1,0.9,16.2
		c-4.3-3.4-10.2-7.7-17.9-10.2c-30.7-11.1-49.5,7.7-50.3,8.5s-0.9,2.6-0.9,3.4s2.6,27.3,33.3,38.4c20.5,7.7,34.1,0.9,41.8-4.3
		c5.1,20.5,13.7,38.4,23.9,54.6c-6-1.7-12.8-2.6-20.5-1.7c-35,3.4-41.8,29.9-41.8,30.7c-0.9,0.9,0,1.7,0,2.6s11.9,26.5,46.1,23
		c24.7-1.7,35-15.4,39.3-23.9c15.4,16.2,31.6,29.9,46.9,40.1c-6.8,0.9-13.7,2.6-22.2,7.7c-32.4,17.9-26.5,46.9-26.5,47.8
		c0.9,0.9,0.9,1.7,1.7,2.6c0.8,0.9,11.6,10.4,27.7,8.6c8.7-1,15.6-1.1,26.8-9.6c19-15,20.6-31.4,21.5-41.6
		c17.9,8.5,29.9,12.8,30.7,12.8c1.7,0.9,4.3,0,5.1-2.6C234.6,450.937,233.8,448.437,231.2,447.537z M140.6,35.837
		c0.9-15.4,11.1-20.5,14.5-22.2c3.4,2.6,11.9,9.4,11.1,24.7c-0.9,7.7-3.4,12.8-6,16.2c-3,3.9-5.6,5.2-9.4,6
		C147.4,58.037,138.9,51.137,140.6,35.837z M193.7,99.437c-8.8,4.4-18.8,2.2-26.5-3.4c-3.8-2.8-7.3-5.8-9.6-10.1
		c-2.3-4.2-3.3-9.1-2.4-13.8c0.1-0.6,1.2-1,1.6-1.2c0.9-0.4,1.8-0.7,2.8-0.9c1.8-0.5,3.8-0.7,5.7-0.6c6.1,0.1,11.4,2.8,16.4,6.1
		C194.5,84.037,194.5,95.137,193.7,99.437z M81,71.237c4.3,0.9,17.1,3.4,23.9,20.5c3.4,9.4,2.6,16.2,0.9,21.3c-1.2,3-3.6,6.6-6,9.4
		c-4.3,0-17.1-3.4-23-20.5C69.9,84.937,77.6,74.637,81,71.237z M134.8,117.337c18.8,3.4,23.9,15.4,24.7,19.6
		c-2.6,3.4-11.9,13.7-29.9,10.2c-1.9-0.4-3.8-0.9-5.6-1.5c-7.1-2.4-13.4-7-16.8-13.8c-0.4-0.8-0.8-1.7-1.1-2.6
		c-0.1-0.2-0.2-0.5-0.4-0.8c-0.2-0.5-0.4-1-0.2-1.3c0.8-1.6,2.2-3.2,3.6-4.3C116.5,117.337,125.8,115.637,134.8,117.337z
		 M48.6,264.937c14.5,5.1,20.5,13.7,23,20.5c0.9,3.4,1.5,5.9,1.7,8.5c-4.3,3.4-16.2,12.8-36.7,5.1c-21.3-7.7-26.5-23-27.3-29
		C14.5,266.637,28.1,257.237,48.6,264.937z M131.2,247.037c0.9,5.4,3.6,21.7-14.4,37c-18.1,14.4-34.3,9-38.8,7.2
		c-0.9-1.8-0.9-3.6-0.9-5.4v-0.9c0-8.1,2.7-19.9,15.4-30.7C110.4,238.837,126.7,245.237,131.2,247.037z M59.5,206.637
		c-7.9-0.9-14.8-5.3-20.3-10.8c-14.5-14.5-11.1-29-9.4-33.3c4.3-1.7,18.8-5.1,32.4,9.4c2.7,2.7,5.1,5.8,7.1,9.1
		c1.8,3.1,3.2,6.5,3.8,10c0.6,3.8,0,7.8-0.6,11.5c-0.1,0.7-0.5,2-0.9,2.6c-0.5,0.6-1.5,0.7-2.2,0.8c-1.1,0.2-2.1,0.5-3.2,0.6
		C63.9,206.837,61.7,206.837,59.5,206.637z M104.9,183.037c19.6-5.1,29.9,5.1,33.3,8.5c-0.9,4.3-5.1,18.8-24.7,23.9
		c-0.5,0.1-0.9,0.3-1.4,0.4c-7,1.9-14.6,2.1-21.4-0.7c-2.3-0.9-4.4-2.2-6.4-3.7c-0.8-0.6-1.5-1.2-2.2-1.9c-0.5-0.4-1.5-1.2-1.8-1.8
		c0-0.1-0.1-0.2-0.1-0.3c0-0.3,0.1-0.6,0.2-0.9c1.5-4.5,2.9-8.7,6-12.4C91.1,188.437,97.9,185.037,104.9,183.037z M46.5,388.237
		c1.7-4.3,9.4-20.5,33.3-23.9c15.4-0.9,24.7,4.3,30.7,9.4c2.5,2.4,5.3,5,6,7.7c-1.7,5.1-9.4,21.3-33.3,23
		C59.3,406.937,49,392.437,46.5,388.237z M119.1,371.437c-0.7-0.9-1.4-1.9-1.7-3c0,0.1,0,0.2,0,0.4c-0.7-1.8-1.5-3.6-2-5.4
		c-3.1-10.1-1.3-20.4,3.8-29.6c10.2-22.2,27.3-23.9,32.4-23.9c2.6,3.4,12.8,17.9,2.6,40.1c-10.2,21.3-26.5,23.9-32.4,23.9
		C120.9,373.837,119.5,372.037,119.1,371.437z M129.8,484.037c-1.4-5.9-3.2-24.6,17.6-40.3c13.7-9,25.6-10.2,33.5-8.4
		c4.9,1.4,8.3,2.8,10.8,5c1.5,6.7,1.4,23.9-18.6,38.7C151.4,494.837,134.4,487.037,129.8,484.037z M216.6,392.937
		c0,27.3-17.1,36.7-21.3,38.4c-1.9-0.9-3.3-1.9-4.7-3c-0.9-0.8-1.8-1.6-2.9-2.5c-0.9-0.8-1.9-1.7-2.7-2.6c-2.1-2.2-3.9-4.6-5.4-7.1
		c-4-7-5.6-15.1-5.6-23.1c0-26.5,16.2-35.8,21.3-38.4C200.4,357.137,216.6,366.537,216.6,392.937z"/>
</g>
</svg>